# Blender 4.5.5 LTS
# www.blender.org
mtllib background.mtl
o Plane
v -1.000000 0.000000 1.000000
v 1.000000 0.000000 1.000000
v -1.000000 2.000000 -1.000000
v 1.000000 2.000000 -1.000000
v -1.000000 0.000000 -0.500000
v -1.000000 0.500000 -1.000000
v -1.000000 0.038060 -0.691342
v -1.000000 0.146447 -0.853553
v -1.000000 0.308658 -0.961940
v 1.000000 0.500000 -1.000000
v 1.000000 0.000000 -0.500000
v 1.000000 0.308658 -0.961940
v 1.000000 0.146447 -0.853553
v 1.000000 0.038060 -0.691342
vn -0.0000 1.0000 -0.0000
vn -0.0000 -0.0000 1.0000
vn -0.0000 0.9952 0.0980
vn -0.0000 0.0980 0.9952
vn -0.0000 0.9239 0.3827
vn -0.0000 0.7071 0.7071
vn -0.0000 0.3827 0.9239
vt 0.000000 1.000000
vt 1.000000 1.000000
vt 1.000000 1.000000
vt 0.000000 1.000000
vt 1.000000 0.845671
vt 0.000000 0.845671
vt 1.000000 0.750000
vt 1.000000 0.000000
vt 0.000000 0.750000
vt 0.000000 0.000000
s 1
f 6/1/4 12/2/7 10/2/4
f 9/1/7 13/3/6 12/2/7
f 8/4/6 14/5/5 13/3/6
f 7/6/5 11/7/3 14/5/5
f 2/8/1 5/9/3 1/10/1
f 10/2/4 3/1/2 6/1/4
f 6/1/4 9/1/7 12/2/7
f 9/1/7 8/4/6 13/3/6
f 8/4/6 7/6/5 14/5/5
f 7/6/5 5/9/3 11/7/3
f 2/8/1 11/7/3 5/9/3
f 10/2/4 4/2/2 3/1/2
